<svg id="Layer_1" data-name="Layer 1" xmlns="http://www.w3.org/2000/svg" viewBox="0 0 3756.1 3756.5"><path d="M4128,2249.8C4128,3287,3287.3,4127.9,2250,4127.9S372,3287,372,2249.8,1212.8,371.8,2250,371.8,4128,1212.5,4128,2249.8Z" transform="translate(-372 -371.8)" style="fill:#fff"/><path id="_149931032" data-name=" 149931032" d="M2250,371.8c-1036.9,0-1879.1,842.1-1877.8,1878,0.3,207.3,33.3,406.6,95.3,593.1h561.9V1263L2250,2483.6,3470.5,1263v1579.9h562c62.1-186.5,95-385.9,95.4-593.1C4129.7,1212.8,3287,372,2250,372Z" transform="translate(-372 -371.8)" style="fill:#f26822"/><path id="_149931160" data-name=" 149931160" d="M1969.3,2764.2l-532.7-532.7v994.1H1029.4l-384.3.07c329.6,540.8,925.4,902.6,1604.9,902.6S3525.3,3766.4,3855,3225.6H3063.2V2231.5l-532.7,532.7-280.6,280.6-280.6-280.6h0Z" transform="translate(-372 -371.8)" style="fill:#4d4d4d"/></svg>